ISO-10303-21;
HEADER;
FILE_DESCRIPTION(('FreeCAD Model'),'2;1');
FILE_NAME('Open CASCADE Shape Model','2026-09-09T12:54:22',('Author'),(
    ''),'Open CASCADE STEP processor 7.8','FreeCAD','Unknown');
FILE_SCHEMA(('AUTOMOTIVE_DESIGN { 1 0 10303 214 1 1 1 1 }'));
ENDSEC;
DATA;
#1 = APPLICATION_PROTOCOL_DEFINITION('international standard',
  'automotive_design',2000,#2);
#2 = APPLICATION_CONTEXT(
  'core data for automotive mechanical design processes');
#3 = SHAPE_DEFINITION_REPRESENTATION(#4,#10);
#4 = PRODUCT_DEFINITION_SHAPE('','',#5);
#5 = PRODUCT_DEFINITION('design','',#6,#9);
#6 = PRODUCT_DEFINITION_FORMATION('','',#7);
#7 = PRODUCT('Part A · MID-360 radar plate',
  'Part A · MID-360 radar plate','',(#8));
#8 = PRODUCT_CONTEXT('',#2,'mechanical');
#9 = PRODUCT_DEFINITION_CONTEXT('part definition',#2,'design');
#10 = ADVANCED_BREP_SHAPE_REPRESENTATION('',(#11,#15),#1265);
#11 = AXIS2_PLACEMENT_3D('',#12,#13,#14);
#12 = CARTESIAN_POINT('',(0.,0.,0.));
#13 = DIRECTION('',(0.,0.,1.));
#14 = DIRECTION('',(1.,0.,-0.));
#15 = MANIFOLD_SOLID_BREP('',#16);
#16 = CLOSED_SHELL('',(#17,#57,#88,#121,#189,#222,#262,#295,#317,#406,
    #433,#458,#489,#520,#529,#538,#636,#695,#719,#746,#771,#780,#789,
    #925,#957,#981,#1006,#1030,#1055,#1079,#1104,#1121,#1146,#1171,#1196
    ,#1221));
#17 = ADVANCED_FACE('',(#18),#52,.T.);
#18 = FACE_BOUND('',#19,.T.);
#19 = EDGE_LOOP('',(#20,#30,#38,#46));
#20 = ORIENTED_EDGE('',*,*,#21,.T.);
#21 = EDGE_CURVE('',#22,#24,#26,.T.);
#22 = VERTEX_POINT('',#23);
#23 = CARTESIAN_POINT('',(-17.,-42.5,-6.));
#24 = VERTEX_POINT('',#25);
#25 = CARTESIAN_POINT('',(-17.,-35.5,-6.));
#26 = LINE('',#27,#28);
#27 = CARTESIAN_POINT('',(-17.,-39.,-6.));
#28 = VECTOR('',#29,1.);
#29 = DIRECTION('',(-0.,1.,0.));
#30 = ORIENTED_EDGE('',*,*,#31,.T.);
#31 = EDGE_CURVE('',#24,#32,#34,.T.);
#32 = VERTEX_POINT('',#33);
#33 = CARTESIAN_POINT('',(-17.,-35.5,0.));
#34 = LINE('',#35,#36);
#35 = CARTESIAN_POINT('',(-17.,-35.5,-7.));
#36 = VECTOR('',#37,1.);
#37 = DIRECTION('',(0.,0.,1.));
#38 = ORIENTED_EDGE('',*,*,#39,.F.);
#39 = EDGE_CURVE('',#40,#32,#42,.T.);
#40 = VERTEX_POINT('',#41);
#41 = CARTESIAN_POINT('',(-17.,-42.5,0.));
#42 = LINE('',#43,#44);
#43 = CARTESIAN_POINT('',(-17.,-39.,0.));
#44 = VECTOR('',#45,1.);
#45 = DIRECTION('',(-0.,1.,0.));
#46 = ORIENTED_EDGE('',*,*,#47,.T.);
#47 = EDGE_CURVE('',#40,#22,#48,.T.);
#48 = LINE('',#49,#50);
#49 = CARTESIAN_POINT('',(-17.,-42.5,-6.5));
#50 = VECTOR('',#51,1.);
#51 = DIRECTION('',(-0.,0.,-1.));
#52 = PLANE('',#53);
#53 = AXIS2_PLACEMENT_3D('',#54,#55,#56);
#54 = CARTESIAN_POINT('',(-17.,-35.5,-7.));
#55 = DIRECTION('',(1.,0.,-0.));
#56 = DIRECTION('',(0.,-1.,0.));
#57 = ADVANCED_FACE('',(#58),#83,.F.);
#58 = FACE_BOUND('',#59,.F.);
#59 = EDGE_LOOP('',(#60,#68,#76,#82));
#60 = ORIENTED_EDGE('',*,*,#61,.F.);
#61 = EDGE_CURVE('',#62,#22,#64,.T.);
#62 = VERTEX_POINT('',#63);
#63 = CARTESIAN_POINT('',(-30.5,-42.5,-6.));
#64 = LINE('',#65,#66);
#65 = CARTESIAN_POINT('',(-30.5,-42.5,-6.));
#66 = VECTOR('',#67,1.);
#67 = DIRECTION('',(1.,0.,-0.));
#68 = ORIENTED_EDGE('',*,*,#69,.T.);
#69 = EDGE_CURVE('',#62,#70,#72,.T.);
#70 = VERTEX_POINT('',#71);
#71 = CARTESIAN_POINT('',(-30.5,-42.5,0.));
#72 = LINE('',#73,#74);
#73 = CARTESIAN_POINT('',(-30.5,-42.5,-6.));
#74 = VECTOR('',#75,1.);
#75 = DIRECTION('',(0.,0.,1.));
#76 = ORIENTED_EDGE('',*,*,#77,.T.);
#77 = EDGE_CURVE('',#70,#40,#78,.T.);
#78 = LINE('',#79,#80);
#79 = CARTESIAN_POINT('',(-30.5,-42.5,0.));
#80 = VECTOR('',#81,1.);
#81 = DIRECTION('',(1.,0.,-0.));
#82 = ORIENTED_EDGE('',*,*,#47,.T.);
#83 = PLANE('',#84);
#84 = AXIS2_PLACEMENT_3D('',#85,#86,#87);
#85 = CARTESIAN_POINT('',(-30.5,-42.5,-6.));
#86 = DIRECTION('',(-0.,1.,0.));
#87 = DIRECTION('',(0.,0.,1.));
#88 = ADVANCED_FACE('',(#89),#116,.T.);
#89 = FACE_BOUND('',#90,.T.);
#90 = EDGE_LOOP('',(#91,#100,#108,#115));
#91 = ORIENTED_EDGE('',*,*,#92,.F.);
#92 = EDGE_CURVE('',#93,#70,#95,.T.);
#93 = VERTEX_POINT('',#94);
#94 = CARTESIAN_POINT('',(-34.5,-38.5,0.));
#95 = CIRCLE('',#96,4.);
#96 = AXIS2_PLACEMENT_3D('',#97,#98,#99);
#97 = CARTESIAN_POINT('',(-30.5,-38.5,0.));
#98 = DIRECTION('',(0.,0.,1.));
#99 = DIRECTION('',(1.,0.,-0.));
#100 = ORIENTED_EDGE('',*,*,#101,.F.);
#101 = EDGE_CURVE('',#102,#93,#104,.T.);
#102 = VERTEX_POINT('',#103);
#103 = CARTESIAN_POINT('',(-34.5,-38.5,-6.));
#104 = LINE('',#105,#106);
#105 = CARTESIAN_POINT('',(-34.5,-38.5,-6.));
#106 = VECTOR('',#107,1.);
#107 = DIRECTION('',(0.,0.,1.));
#108 = ORIENTED_EDGE('',*,*,#109,.T.);
#109 = EDGE_CURVE('',#102,#62,#110,.T.);
#110 = CIRCLE('',#111,4.);
#111 = AXIS2_PLACEMENT_3D('',#112,#113,#114);
#112 = CARTESIAN_POINT('',(-30.5,-38.5,-6.));
#113 = DIRECTION('',(0.,0.,1.));
#114 = DIRECTION('',(1.,0.,-0.));
#115 = ORIENTED_EDGE('',*,*,#69,.T.);
#116 = CYLINDRICAL_SURFACE('',#117,4.);
#117 = AXIS2_PLACEMENT_3D('',#118,#119,#120);
#118 = CARTESIAN_POINT('',(-30.5,-38.5,-6.));
#119 = DIRECTION('',(0.,0.,1.));
#120 = DIRECTION('',(1.,0.,-0.));
#121 = ADVANCED_FACE('',(#122,#173),#184,.F.);
#122 = FACE_BOUND('',#123,.F.);
#123 = EDGE_LOOP('',(#124,#125,#133,#141,#150,#159,#167));
#124 = ORIENTED_EDGE('',*,*,#101,.F.);
#125 = ORIENTED_EDGE('',*,*,#126,.T.);
#126 = EDGE_CURVE('',#102,#127,#129,.T.);
#127 = VERTEX_POINT('',#128);
#128 = CARTESIAN_POINT('',(-34.5,38.5,-6.));
#129 = LINE('',#130,#131);
#130 = CARTESIAN_POINT('',(-34.5,-38.5,-6.));
#131 = VECTOR('',#132,1.);
#132 = DIRECTION('',(-0.,1.,0.));
#133 = ORIENTED_EDGE('',*,*,#134,.T.);
#134 = EDGE_CURVE('',#127,#135,#137,.T.);
#135 = VERTEX_POINT('',#136);
#136 = CARTESIAN_POINT('',(-34.5,38.5,-4.936491673104));
#137 = LINE('',#138,#139);
#138 = CARTESIAN_POINT('',(-34.5,38.5,-6.));
#139 = VECTOR('',#140,1.);
#140 = DIRECTION('',(0.,0.,1.));
#141 = ORIENTED_EDGE('',*,*,#142,.F.);
#142 = EDGE_CURVE('',#143,#135,#145,.T.);
#143 = VERTEX_POINT('',#144);
#144 = CARTESIAN_POINT('',(-34.5,38.,-1.));
#145 = CIRCLE('',#146,2.);
#146 = AXIS2_PLACEMENT_3D('',#147,#148,#149);
#147 = CARTESIAN_POINT('',(-34.5,38.,-3.));
#148 = DIRECTION('',(1.,0.,0.));
#149 = DIRECTION('',(-0.,0.,1.));
#150 = ORIENTED_EDGE('',*,*,#151,.F.);
#151 = EDGE_CURVE('',#152,#143,#154,.T.);
#152 = VERTEX_POINT('',#153);
#153 = CARTESIAN_POINT('',(-34.5,38.5,-1.063508326896));
#154 = CIRCLE('',#155,2.);
#155 = AXIS2_PLACEMENT_3D('',#156,#157,#158);
#156 = CARTESIAN_POINT('',(-34.5,38.,-3.));
#157 = DIRECTION('',(1.,0.,0.));
#158 = DIRECTION('',(-0.,0.,1.));
#159 = ORIENTED_EDGE('',*,*,#160,.T.);
#160 = EDGE_CURVE('',#152,#161,#163,.T.);
#161 = VERTEX_POINT('',#162);
#162 = CARTESIAN_POINT('',(-34.5,38.5,0.));
#163 = LINE('',#164,#165);
#164 = CARTESIAN_POINT('',(-34.5,38.5,-6.));
#165 = VECTOR('',#166,1.);
#166 = DIRECTION('',(0.,0.,1.));
#167 = ORIENTED_EDGE('',*,*,#168,.F.);
#168 = EDGE_CURVE('',#93,#161,#169,.T.);
#169 = LINE('',#170,#171);
#170 = CARTESIAN_POINT('',(-34.5,-38.5,0.));
#171 = VECTOR('',#172,1.);
#172 = DIRECTION('',(-0.,1.,0.));
#173 = FACE_BOUND('',#174,.F.);
#174 = EDGE_LOOP('',(#175));
#175 = ORIENTED_EDGE('',*,*,#176,.F.);
#176 = EDGE_CURVE('',#177,#177,#179,.T.);
#177 = VERTEX_POINT('',#178);
#178 = CARTESIAN_POINT('',(-34.5,-7.,-1.));
#179 = CIRCLE('',#180,2.);
#180 = AXIS2_PLACEMENT_3D('',#181,#182,#183);
#181 = CARTESIAN_POINT('',(-34.5,-7.,-3.));
#182 = DIRECTION('',(1.,0.,0.));
#183 = DIRECTION('',(-0.,0.,1.));
#184 = PLANE('',#185);
#185 = AXIS2_PLACEMENT_3D('',#186,#187,#188);
#186 = CARTESIAN_POINT('',(-34.5,-38.5,-6.));
#187 = DIRECTION('',(1.,0.,-0.));
#188 = DIRECTION('',(0.,0.,1.));
#189 = ADVANCED_FACE('',(#190),#217,.F.);
#190 = FACE_BOUND('',#191,.T.);
#191 = EDGE_LOOP('',(#192,#201,#209,#216));
#192 = ORIENTED_EDGE('',*,*,#193,.T.);
#193 = EDGE_CURVE('',#24,#194,#196,.T.);
#194 = VERTEX_POINT('',#195);
#195 = CARTESIAN_POINT('',(-12.,-30.5,-6.));
#196 = CIRCLE('',#197,5.);
#197 = AXIS2_PLACEMENT_3D('',#198,#199,#200);
#198 = CARTESIAN_POINT('',(-12.,-35.5,-6.));
#199 = DIRECTION('',(-0.,0.,-1.));
#200 = DIRECTION('',(0.,1.,0.));
#201 = ORIENTED_EDGE('',*,*,#202,.T.);
#202 = EDGE_CURVE('',#194,#203,#205,.T.);
#203 = VERTEX_POINT('',#204);
#204 = CARTESIAN_POINT('',(-12.,-30.5,0.));
#205 = LINE('',#206,#207);
#206 = CARTESIAN_POINT('',(-12.,-30.5,-7.));
#207 = VECTOR('',#208,1.);
#208 = DIRECTION('',(0.,0.,1.));
#209 = ORIENTED_EDGE('',*,*,#210,.F.);
#210 = EDGE_CURVE('',#32,#203,#211,.T.);
#211 = CIRCLE('',#212,5.);
#212 = AXIS2_PLACEMENT_3D('',#213,#214,#215);
#213 = CARTESIAN_POINT('',(-12.,-35.5,0.));
#214 = DIRECTION('',(-0.,0.,-1.));
#215 = DIRECTION('',(0.,1.,0.));
#216 = ORIENTED_EDGE('',*,*,#31,.F.);
#217 = CYLINDRICAL_SURFACE('',#218,5.);
#218 = AXIS2_PLACEMENT_3D('',#219,#220,#221);
#219 = CARTESIAN_POINT('',(-12.,-35.5,-7.));
#220 = DIRECTION('',(-0.,0.,-1.));
#221 = DIRECTION('',(0.,1.,0.));
#222 = ADVANCED_FACE('',(#223),#257,.T.);
#223 = FACE_BOUND('',#224,.T.);
#224 = EDGE_LOOP('',(#225,#235,#243,#251));
#225 = ORIENTED_EDGE('',*,*,#226,.F.);
#226 = EDGE_CURVE('',#227,#229,#231,.T.);
#227 = VERTEX_POINT('',#228);
#228 = CARTESIAN_POINT('',(17.,-35.5,-6.));
#229 = VERTEX_POINT('',#230);
#230 = CARTESIAN_POINT('',(17.,-35.5,0.));
#231 = LINE('',#232,#233);
#232 = CARTESIAN_POINT('',(17.,-35.5,-7.));
#233 = VECTOR('',#234,1.);
#234 = DIRECTION('',(0.,0.,1.));
#235 = ORIENTED_EDGE('',*,*,#236,.T.);
#236 = EDGE_CURVE('',#227,#237,#239,.T.);
#237 = VERTEX_POINT('',#238);
#238 = CARTESIAN_POINT('',(17.,-42.5,-6.));
#239 = LINE('',#240,#241);
#240 = CARTESIAN_POINT('',(17.,-42.75,-6.));
#241 = VECTOR('',#242,1.);
#242 = DIRECTION('',(0.,-1.,0.));
#243 = ORIENTED_EDGE('',*,*,#244,.T.);
#244 = EDGE_CURVE('',#237,#245,#247,.T.);
#245 = VERTEX_POINT('',#246);
#246 = CARTESIAN_POINT('',(17.,-42.5,0.));
#247 = LINE('',#248,#249);
#248 = CARTESIAN_POINT('',(17.,-42.5,-6.5));
#249 = VECTOR('',#250,1.);
#250 = DIRECTION('',(0.,0.,1.));
#251 = ORIENTED_EDGE('',*,*,#252,.F.);
#252 = EDGE_CURVE('',#229,#245,#253,.T.);
#253 = LINE('',#254,#255);
#254 = CARTESIAN_POINT('',(17.,-42.75,0.));
#255 = VECTOR('',#256,1.);
#256 = DIRECTION('',(0.,-1.,0.));
#257 = PLANE('',#258);
#258 = AXIS2_PLACEMENT_3D('',#259,#260,#261);
#259 = CARTESIAN_POINT('',(17.,-43.,-7.));
#260 = DIRECTION('',(-1.,0.,0.));
#261 = DIRECTION('',(0.,1.,0.));
#262 = ADVANCED_FACE('',(#263),#290,.F.);
#263 = FACE_BOUND('',#264,.T.);
#264 = EDGE_LOOP('',(#265,#274,#275,#284));
#265 = ORIENTED_EDGE('',*,*,#266,.T.);
#266 = EDGE_CURVE('',#267,#227,#269,.T.);
#267 = VERTEX_POINT('',#268);
#268 = CARTESIAN_POINT('',(12.,-30.5,-6.));
#269 = CIRCLE('',#270,5.);
#270 = AXIS2_PLACEMENT_3D('',#271,#272,#273);
#271 = CARTESIAN_POINT('',(12.,-35.5,-6.));
#272 = DIRECTION('',(0.,-0.,-1.));
#273 = DIRECTION('',(1.,0.,-0.));
#274 = ORIENTED_EDGE('',*,*,#226,.T.);
#275 = ORIENTED_EDGE('',*,*,#276,.F.);
#276 = EDGE_CURVE('',#277,#229,#279,.T.);
#277 = VERTEX_POINT('',#278);
#278 = CARTESIAN_POINT('',(12.,-30.5,0.));
#279 = CIRCLE('',#280,5.);
#280 = AXIS2_PLACEMENT_3D('',#281,#282,#283);
#281 = CARTESIAN_POINT('',(12.,-35.5,0.));
#282 = DIRECTION('',(0.,-0.,-1.));
#283 = DIRECTION('',(1.,0.,-0.));
#284 = ORIENTED_EDGE('',*,*,#285,.F.);
#285 = EDGE_CURVE('',#267,#277,#286,.T.);
#286 = LINE('',#287,#288);
#287 = CARTESIAN_POINT('',(12.,-30.5,-7.));
#288 = VECTOR('',#289,1.);
#289 = DIRECTION('',(0.,0.,1.));
#290 = CYLINDRICAL_SURFACE('',#291,5.);
#291 = AXIS2_PLACEMENT_3D('',#292,#293,#294);
#292 = CARTESIAN_POINT('',(12.,-35.5,-7.));
#293 = DIRECTION('',(-0.,-0.,-1.));
#294 = DIRECTION('',(1.,0.,-0.));
#295 = ADVANCED_FACE('',(#296),#312,.T.);
#296 = FACE_BOUND('',#297,.T.);
#297 = EDGE_LOOP('',(#298,#304,#305,#311));
#298 = ORIENTED_EDGE('',*,*,#299,.T.);
#299 = EDGE_CURVE('',#194,#267,#300,.T.);
#300 = LINE('',#301,#302);
#301 = CARTESIAN_POINT('',(-9.25,-30.5,-6.));
#302 = VECTOR('',#303,1.);
#303 = DIRECTION('',(1.,0.,-0.));
#304 = ORIENTED_EDGE('',*,*,#285,.T.);
#305 = ORIENTED_EDGE('',*,*,#306,.F.);
#306 = EDGE_CURVE('',#203,#277,#307,.T.);
#307 = LINE('',#308,#309);
#308 = CARTESIAN_POINT('',(-9.25,-30.5,0.));
#309 = VECTOR('',#310,1.);
#310 = DIRECTION('',(1.,0.,-0.));
#311 = ORIENTED_EDGE('',*,*,#202,.F.);
#312 = PLANE('',#313);
#313 = AXIS2_PLACEMENT_3D('',#314,#315,#316);
#314 = CARTESIAN_POINT('',(12.,-30.5,-7.));
#315 = DIRECTION('',(0.,-1.,0.));
#316 = DIRECTION('',(-1.,0.,0.));
#317 = ADVANCED_FACE('',(#318),#401,.T.);
#318 = FACE_BOUND('',#319,.T.);
#319 = EDGE_LOOP('',(#320,#329,#337,#344,#345,#400));
#320 = ORIENTED_EDGE('',*,*,#321,.F.);
#321 = EDGE_CURVE('',#322,#161,#324,.T.);
#322 = VERTEX_POINT('',#323);
#323 = CARTESIAN_POINT('',(-30.5,42.5,0.));
#324 = CIRCLE('',#325,4.);
#325 = AXIS2_PLACEMENT_3D('',#326,#327,#328);
#326 = CARTESIAN_POINT('',(-30.5,38.5,0.));
#327 = DIRECTION('',(0.,0.,1.));
#328 = DIRECTION('',(1.,0.,-0.));
#329 = ORIENTED_EDGE('',*,*,#330,.F.);
#330 = EDGE_CURVE('',#331,#322,#333,.T.);
#331 = VERTEX_POINT('',#332);
#332 = CARTESIAN_POINT('',(-30.5,42.5,-6.));
#333 = LINE('',#334,#335);
#334 = CARTESIAN_POINT('',(-30.5,42.5,-6.));
#335 = VECTOR('',#336,1.);
#336 = DIRECTION('',(0.,0.,1.));
#337 = ORIENTED_EDGE('',*,*,#338,.T.);
#338 = EDGE_CURVE('',#331,#127,#339,.T.);
#339 = CIRCLE('',#340,4.);
#340 = AXIS2_PLACEMENT_3D('',#341,#342,#343);
#341 = CARTESIAN_POINT('',(-30.5,38.5,-6.));
#342 = DIRECTION('',(0.,0.,1.));
#343 = DIRECTION('',(1.,0.,-0.));
#344 = ORIENTED_EDGE('',*,*,#134,.T.);
#345 = ORIENTED_EDGE('',*,*,#346,.T.);
#346 = EDGE_CURVE('',#135,#152,#347,.T.);
#347 = B_SPLINE_CURVE_WITH_KNOTS('',6,(#348,#349,#350,#351,#352,#353,
    #354,#355,#356,#357,#358,#359,#360,#361,#362,#363,#364,#365,#366,
    #367,#368,#369,#370,#371,#372,#373,#374,#375,#376,#377,#378,#379,
    #380,#381,#382,#383,#384,#385,#386,#387,#388,#389,#390,#391,#392,
    #393,#394,#395,#396,#397,#398,#399),.UNSPECIFIED.,.F.,.F.,(7,5,5,5,5
    ,5,5,5,5,5,7),(0.,0.10621556251,0.171407067367,0.222290650345,
    0.394556873451,0.499992072271,0.604274999991,0.78018793832,
    0.829274462745,0.895098926089,1.),.UNSPECIFIED.);
#348 = CARTESIAN_POINT('',(-34.5,38.5,-4.936491673104));
#349 = CARTESIAN_POINT('',(-34.5,38.606235772629,-4.909061714559));
#350 = CARTESIAN_POINT('',(-34.49661435288,38.709191253861,
    -4.875018561146));
#351 = CARTESIAN_POINT('',(-34.49023432715,38.808307548729,
    -4.834895775751));
#352 = CARTESIAN_POINT('',(-34.48133051054,38.903086493469,
    -4.789303195254));
#353 = CARTESIAN_POINT('',(-34.47041733126,38.993101951459,
    -4.738939439285));
#354 = CARTESIAN_POINT('',(-34.4504070326,39.130125466394,
    -4.651255428932));
#355 = CARTESIAN_POINT('',(-34.44222511746,39.180392955232,
    -4.616361452834));
#356 = CARTESIAN_POINT('',(-34.43357735943,39.228808525444,
    -4.580045075123));
#357 = CARTESIAN_POINT('',(-34.42456320065,39.27537168345,
    -4.542421189135));
#358 = CARTESIAN_POINT('',(-34.4152759998,39.320086492336,
    -4.503596997127));
#359 = CARTESIAN_POINT('',(-34.39840914634,39.396426632532,
    -4.432509569926));
#360 = CARTESIAN_POINT('',(-34.39090114711,39.42877485072,-4.40067274241
    ));
#361 = CARTESIAN_POINT('',(-34.38331938017,39.460014115999,
    -4.368204640958));
#362 = CARTESIAN_POINT('',(-34.37570170452,39.490152957246,
    -4.335144733987));
#363 = CARTESIAN_POINT('',(-34.36808349238,39.519200542634,
    -4.301528845108));
#364 = CARTESIAN_POINT('',(-34.33481571133,39.641845955601,
    -4.151809324561));
#365 = CARTESIAN_POINT('',(-34.30948930622,39.724186331413,-4.0301564796
    ));
#366 = CARTESIAN_POINT('',(-34.28581487122,39.794467456928,
    -3.903743661649));
#367 = CARTESIAN_POINT('',(-34.26481181049,39.852952950916,
    -3.773581422994));
#368 = CARTESIAN_POINT('',(-34.24725270692,39.899832100275,
    -3.640475277006));
#369 = CARTESIAN_POINT('',(-34.2253596754,39.956788249602,
    -3.422268804473));
#370 = CARTESIAN_POINT('',(-34.21854132162,39.974077744127,
    -3.338614058958));
#371 = CARTESIAN_POINT('',(-34.21334209848,39.987039545189,
    -3.254360375342));
#372 = CARTESIAN_POINT('',(-34.20984697261,39.995679372842,
    -3.169710109341));
#373 = CARTESIAN_POINT('',(-34.20809924354,40.,-3.084859613733));
#374 = CARTESIAN_POINT('',(-34.20809924354,40.,-2.916067792687));
#375 = CARTESIAN_POINT('',(-34.20980898353,39.995773291742,
    -2.832144234164));
#376 = CARTESIAN_POINT('',(-34.21322815198,39.98732121483,
    -2.748414448436));
#377 = CARTESIAN_POINT('',(-34.21831530977,39.974641139198,
    -2.665068522337));
#378 = CARTESIAN_POINT('',(-34.22498911151,39.957727641092,
    -2.582302223002));
#379 = CARTESIAN_POINT('',(-34.24686144278,39.900889452492,
    -2.362019568625));
#380 = CARTESIAN_POINT('',(-34.26475632367,39.853166015824,
    -2.226052975759));
#381 = CARTESIAN_POINT('',(-34.28625040883,39.793343580571,
    -2.093149194342));
#382 = CARTESIAN_POINT('',(-34.3105212328,39.721218915741,
    -1.964163780195));
#383 = CARTESIAN_POINT('',(-34.33647799999,39.636508081833,-1.8401765011
    ));
#384 = CARTESIAN_POINT('',(-34.37005189102,39.51167863205,
    -1.689791716112));
#385 = CARTESIAN_POINT('',(-34.3774005193,39.483437456697,
    -1.657476753259));
#386 = CARTESIAN_POINT('',(-34.38474337611,39.454179442024,
    -1.625684493514));
#387 = CARTESIAN_POINT('',(-34.39204846997,39.423896386693,
    -1.594447429276));
#388 = CARTESIAN_POINT('',(-34.39928164183,39.392580700733,
    -1.563801252922));
#389 = CARTESIAN_POINT('',(-34.41596100499,39.316837327713,
    -1.493533215682));
#390 = CARTESIAN_POINT('',(-34.42532239587,39.27157299826,
    -1.454407664056));
#391 = CARTESIAN_POINT('',(-34.43440062516,39.224423840724,
    -1.416511130367));
#392 = CARTESIAN_POINT('',(-34.44309928505,39.17538607564,
    -1.379954491564));
#393 = CARTESIAN_POINT('',(-34.45131567252,39.124460720542,
    -1.344856573112));
#394 = CARTESIAN_POINT('',(-34.4710925471,38.987497572166,
    -1.257937116101));
#395 = CARTESIAN_POINT('',(-34.48177070879,38.89837101103,
    -1.208435644378));
#396 = CARTESIAN_POINT('',(-34.49047097981,38.804609621798,
    -1.163610505303));
#397 = CARTESIAN_POINT('',(-34.49669823051,38.706628560108,
    -1.124134926253));
#398 = CARTESIAN_POINT('',(-34.5,38.604911548013,-1.090596372115));
#399 = CARTESIAN_POINT('',(-34.5,38.5,-1.063508326896));
#400 = ORIENTED_EDGE('',*,*,#160,.T.);
#401 = CYLINDRICAL_SURFACE('',#402,4.);
#402 = AXIS2_PLACEMENT_3D('',#403,#404,#405);
#403 = CARTESIAN_POINT('',(-30.5,38.5,-6.));
#404 = DIRECTION('',(0.,0.,1.));
#405 = DIRECTION('',(1.,0.,-0.));
#406 = ADVANCED_FACE('',(#407),#428,.F.);
#407 = FACE_BOUND('',#408,.F.);
#408 = EDGE_LOOP('',(#409,#417,#424,#425,#426,#427));
#409 = ORIENTED_EDGE('',*,*,#410,.T.);
#410 = EDGE_CURVE('',#143,#411,#413,.T.);
#411 = VERTEX_POINT('',#412);
#412 = CARTESIAN_POINT('',(-31.4,38.,-1.));
#413 = LINE('',#414,#415);
#414 = CARTESIAN_POINT('',(-34.6,38.,-1.));
#415 = VECTOR('',#416,1.);
#416 = DIRECTION('',(1.,0.,0.));
#417 = ORIENTED_EDGE('',*,*,#418,.F.);
#418 = EDGE_CURVE('',#411,#411,#419,.T.);
#419 = CIRCLE('',#420,2.);
#420 = AXIS2_PLACEMENT_3D('',#421,#422,#423);
#421 = CARTESIAN_POINT('',(-31.4,38.,-3.));
#422 = DIRECTION('',(1.,0.,0.));
#423 = DIRECTION('',(-0.,0.,1.));
#424 = ORIENTED_EDGE('',*,*,#410,.F.);
#425 = ORIENTED_EDGE('',*,*,#142,.T.);
#426 = ORIENTED_EDGE('',*,*,#346,.T.);
#427 = ORIENTED_EDGE('',*,*,#151,.T.);
#428 = CYLINDRICAL_SURFACE('',#429,2.);
#429 = AXIS2_PLACEMENT_3D('',#430,#431,#432);
#430 = CARTESIAN_POINT('',(-34.6,38.,-3.));
#431 = DIRECTION('',(1.,0.,0.));
#432 = DIRECTION('',(-0.,0.,1.));
#433 = ADVANCED_FACE('',(#434),#453,.F.);
#434 = FACE_BOUND('',#435,.F.);
#435 = EDGE_LOOP('',(#436,#444,#451,#452));
#436 = ORIENTED_EDGE('',*,*,#437,.T.);
#437 = EDGE_CURVE('',#177,#438,#440,.T.);
#438 = VERTEX_POINT('',#439);
#439 = CARTESIAN_POINT('',(-31.4,-7.,-1.));
#440 = LINE('',#441,#442);
#441 = CARTESIAN_POINT('',(-34.6,-7.,-1.));
#442 = VECTOR('',#443,1.);
#443 = DIRECTION('',(1.,0.,0.));
#444 = ORIENTED_EDGE('',*,*,#445,.F.);
#445 = EDGE_CURVE('',#438,#438,#446,.T.);
#446 = CIRCLE('',#447,2.);
#447 = AXIS2_PLACEMENT_3D('',#448,#449,#450);
#448 = CARTESIAN_POINT('',(-31.4,-7.,-3.));
#449 = DIRECTION('',(1.,0.,0.));
#450 = DIRECTION('',(-0.,0.,1.));
#451 = ORIENTED_EDGE('',*,*,#437,.F.);
#452 = ORIENTED_EDGE('',*,*,#176,.T.);
#453 = CYLINDRICAL_SURFACE('',#454,2.);
#454 = AXIS2_PLACEMENT_3D('',#455,#456,#457);
#455 = CARTESIAN_POINT('',(-34.6,-7.,-3.));
#456 = DIRECTION('',(1.,0.,0.));
#457 = DIRECTION('',(-0.,0.,1.));
#458 = ADVANCED_FACE('',(#459),#484,.T.);
#459 = FACE_BOUND('',#460,.T.);
#460 = EDGE_LOOP('',(#461,#469,#470,#478));
#461 = ORIENTED_EDGE('',*,*,#462,.F.);
#462 = EDGE_CURVE('',#331,#463,#465,.T.);
#463 = VERTEX_POINT('',#464);
#464 = CARTESIAN_POINT('',(30.5,42.5,-6.));
#465 = LINE('',#466,#467);
#466 = CARTESIAN_POINT('',(-30.5,42.5,-6.));
#467 = VECTOR('',#468,1.);
#468 = DIRECTION('',(1.,0.,-0.));
#469 = ORIENTED_EDGE('',*,*,#330,.T.);
#470 = ORIENTED_EDGE('',*,*,#471,.T.);
#471 = EDGE_CURVE('',#322,#472,#474,.T.);
#472 = VERTEX_POINT('',#473);
#473 = CARTESIAN_POINT('',(30.5,42.5,0.));
#474 = LINE('',#475,#476);
#475 = CARTESIAN_POINT('',(-30.5,42.5,0.));
#476 = VECTOR('',#477,1.);
#477 = DIRECTION('',(1.,0.,-0.));
#478 = ORIENTED_EDGE('',*,*,#479,.F.);
#479 = EDGE_CURVE('',#463,#472,#480,.T.);
#480 = LINE('',#481,#482);
#481 = CARTESIAN_POINT('',(30.5,42.5,-6.));
#482 = VECTOR('',#483,1.);
#483 = DIRECTION('',(0.,0.,1.));
#484 = PLANE('',#485);
#485 = AXIS2_PLACEMENT_3D('',#486,#487,#488);
#486 = CARTESIAN_POINT('',(-30.5,42.5,-6.));
#487 = DIRECTION('',(-0.,1.,0.));
#488 = DIRECTION('',(0.,0.,1.));
#489 = ADVANCED_FACE('',(#490),#515,.F.);
#490 = FACE_BOUND('',#491,.F.);
#491 = EDGE_LOOP('',(#492,#500,#501,#509));
#492 = ORIENTED_EDGE('',*,*,#493,.F.);
#493 = EDGE_CURVE('',#237,#494,#496,.T.);
#494 = VERTEX_POINT('',#495);
#495 = CARTESIAN_POINT('',(30.5,-42.5,-6.));
#496 = LINE('',#497,#498);
#497 = CARTESIAN_POINT('',(-30.5,-42.5,-6.));
#498 = VECTOR('',#499,1.);
#499 = DIRECTION('',(1.,0.,-0.));
#500 = ORIENTED_EDGE('',*,*,#244,.T.);
#501 = ORIENTED_EDGE('',*,*,#502,.T.);
#502 = EDGE_CURVE('',#245,#503,#505,.T.);
#503 = VERTEX_POINT('',#504);
#504 = CARTESIAN_POINT('',(30.5,-42.5,0.));
#505 = LINE('',#506,#507);
#506 = CARTESIAN_POINT('',(-30.5,-42.5,0.));
#507 = VECTOR('',#508,1.);
#508 = DIRECTION('',(1.,0.,-0.));
#509 = ORIENTED_EDGE('',*,*,#510,.F.);
#510 = EDGE_CURVE('',#494,#503,#511,.T.);
#511 = LINE('',#512,#513);
#512 = CARTESIAN_POINT('',(30.5,-42.5,-6.));
#513 = VECTOR('',#514,1.);
#514 = DIRECTION('',(0.,0.,1.));
#515 = PLANE('',#516);
#516 = AXIS2_PLACEMENT_3D('',#517,#518,#519);
#517 = CARTESIAN_POINT('',(-30.5,-42.5,-6.));
#518 = DIRECTION('',(-0.,1.,0.));
#519 = DIRECTION('',(0.,0.,1.));
#520 = ADVANCED_FACE('',(#521),#524,.F.);
#521 = FACE_BOUND('',#522,.F.);
#522 = EDGE_LOOP('',(#523));
#523 = ORIENTED_EDGE('',*,*,#418,.T.);
#524 = PLANE('',#525);
#525 = AXIS2_PLACEMENT_3D('',#526,#527,#528);
#526 = CARTESIAN_POINT('',(-31.4,38.,-3.));
#527 = DIRECTION('',(1.,0.,0.));
#528 = DIRECTION('',(-0.,0.,1.));
#529 = ADVANCED_FACE('',(#530),#533,.F.);
#530 = FACE_BOUND('',#531,.F.);
#531 = EDGE_LOOP('',(#532));
#532 = ORIENTED_EDGE('',*,*,#445,.T.);
#533 = PLANE('',#534);
#534 = AXIS2_PLACEMENT_3D('',#535,#536,#537);
#535 = CARTESIAN_POINT('',(-31.4,-7.,-3.));
#536 = DIRECTION('',(1.,0.,0.));
#537 = DIRECTION('',(-0.,0.,1.));
#538 = ADVANCED_FACE('',(#539),#631,.T.);
#539 = FACE_BOUND('',#540,.T.);
#540 = EDGE_LOOP('',(#541,#550,#558,#615,#623,#630));
#541 = ORIENTED_EDGE('',*,*,#542,.F.);
#542 = EDGE_CURVE('',#543,#472,#545,.T.);
#543 = VERTEX_POINT('',#544);
#544 = CARTESIAN_POINT('',(34.5,38.5,0.));
#545 = CIRCLE('',#546,4.);
#546 = AXIS2_PLACEMENT_3D('',#547,#548,#549);
#547 = CARTESIAN_POINT('',(30.5,38.5,0.));
#548 = DIRECTION('',(0.,0.,1.));
#549 = DIRECTION('',(1.,0.,-0.));
#550 = ORIENTED_EDGE('',*,*,#551,.F.);
#551 = EDGE_CURVE('',#552,#543,#554,.T.);
#552 = VERTEX_POINT('',#553);
#553 = CARTESIAN_POINT('',(34.5,38.5,-1.063508326896));
#554 = LINE('',#555,#556);
#555 = CARTESIAN_POINT('',(34.5,38.5,-6.));
#556 = VECTOR('',#557,1.);
#557 = DIRECTION('',(0.,0.,1.));
#558 = ORIENTED_EDGE('',*,*,#559,.T.);
#559 = EDGE_CURVE('',#552,#560,#562,.T.);
#560 = VERTEX_POINT('',#561);
#561 = CARTESIAN_POINT('',(34.5,38.5,-4.936491673104));
#562 = B_SPLINE_CURVE_WITH_KNOTS('',6,(#563,#564,#565,#566,#567,#568,
    #569,#570,#571,#572,#573,#574,#575,#576,#577,#578,#579,#580,#581,
    #582,#583,#584,#585,#586,#587,#588,#589,#590,#591,#592,#593,#594,
    #595,#596,#597,#598,#599,#600,#601,#602,#603,#604,#605,#606,#607,
    #608,#609,#610,#611,#612,#613,#614),.UNSPECIFIED.,.F.,.F.,(7,5,5,5,5
    ,5,5,5,5,5,7),(0.,0.106215562549,0.171407067403,0.222290650379,
    0.394556873477,0.499992072293,0.604275000009,0.78018793833,
    0.829274462752,0.895098926094,1.),.UNSPECIFIED.);
#563 = CARTESIAN_POINT('',(34.5,38.5,-1.063508326896));
#564 = CARTESIAN_POINT('',(34.5,38.60623577258,-1.090938285428));
#565 = CARTESIAN_POINT('',(34.496614352885,38.709191253875,
    -1.124981438852));
#566 = CARTESIAN_POINT('',(34.49023432715,38.808307548772,
    -1.165104224267));
#567 = CARTESIAN_POINT('',(34.481330510538,38.903086493478,
    -1.210696804759));
#568 = CARTESIAN_POINT('',(34.470417331266,38.993101951424,
    -1.261060560693));
#569 = CARTESIAN_POINT('',(34.450407032605,39.130125466394,
    -1.348744571068));
#570 = CARTESIAN_POINT('',(34.442225117463,39.180392955232,
    -1.383638547166));
#571 = CARTESIAN_POINT('',(34.433577359433,39.228808525444,
    -1.419954924877));
#572 = CARTESIAN_POINT('',(34.424563200655,39.27537168345,
    -1.457578810865));
#573 = CARTESIAN_POINT('',(34.415275999805,39.320086492336,
    -1.496403002873));
#574 = CARTESIAN_POINT('',(34.398409146347,39.396426632532,
    -1.567490430074));
#575 = CARTESIAN_POINT('',(34.390901147114,39.42877485072,-1.59932725759
    ));
#576 = CARTESIAN_POINT('',(34.383319380173,39.460014115999,
    -1.631795359042));
#577 = CARTESIAN_POINT('',(34.37570170452,39.490152957246,
    -1.664855266013));
#578 = CARTESIAN_POINT('',(34.368083492381,39.519200542634,
    -1.698471154892));
#579 = CARTESIAN_POINT('',(34.334815711332,39.6418459556,-1.848190675439
    ));
#580 = CARTESIAN_POINT('',(34.30948930622,39.724186331413,-1.9698435204)
  );
#581 = CARTESIAN_POINT('',(34.285814871229,39.794467456928,
    -2.09625633835));
#582 = CARTESIAN_POINT('',(34.264811810499,39.852952950916,
    -2.226418577006));
#583 = CARTESIAN_POINT('',(34.247252706923,39.899832100275,
    -2.359524722994));
#584 = CARTESIAN_POINT('',(34.225359675403,39.956788249602,
    -2.577731195527));
#585 = CARTESIAN_POINT('',(34.21854132162,39.974077744127,
    -2.661385941042));
#586 = CARTESIAN_POINT('',(34.213342098487,39.987039545189,
    -2.745639624658));
#587 = CARTESIAN_POINT('',(34.209846972618,39.995679372842,
    -2.830289890659));
#588 = CARTESIAN_POINT('',(34.208099243548,40.,-2.915140386267));
#589 = CARTESIAN_POINT('',(34.208099243548,40.,-3.083932207313));
#590 = CARTESIAN_POINT('',(34.209808983533,39.995773291742,
    -3.167855765836));
#591 = CARTESIAN_POINT('',(34.213228151989,39.98732121483,
    -3.251585551564));
#592 = CARTESIAN_POINT('',(34.218315309779,39.974641139198,
    -3.334931477663));
#593 = CARTESIAN_POINT('',(34.22498911151,39.957727641092,
    -3.417697776998));
#594 = CARTESIAN_POINT('',(34.246861442786,39.900889452492,
    -3.637980431375));
#595 = CARTESIAN_POINT('',(34.264756323674,39.853166015824,
    -3.773947024241));
#596 = CARTESIAN_POINT('',(34.286250408839,39.793343580571,
    -3.906850805658));
#597 = CARTESIAN_POINT('',(34.310521232802,39.721218915741,
    -4.035836219805));
#598 = CARTESIAN_POINT('',(34.336477999996,39.636508081833,-4.1598234989
    ));
#599 = CARTESIAN_POINT('',(34.370051891029,39.51167863205,
    -4.310208283888));
#600 = CARTESIAN_POINT('',(34.377400519304,39.483437456697,
    -4.342523246741));
#601 = CARTESIAN_POINT('',(34.384743376116,39.454179442024,
    -4.374315506486));
#602 = CARTESIAN_POINT('',(34.392048469976,39.423896386693,
    -4.405552570724));
#603 = CARTESIAN_POINT('',(34.399281641833,39.392580700733,
    -4.436198747078));
#604 = CARTESIAN_POINT('',(34.415961004999,39.316837327713,
    -4.506466784318));
#605 = CARTESIAN_POINT('',(34.425322395879,39.27157299826,
    -4.545592335944));
#606 = CARTESIAN_POINT('',(34.434400625162,39.224423840724,
    -4.583488869633));
#607 = CARTESIAN_POINT('',(34.443099285057,39.17538607564,
    -4.620045508436));
#608 = CARTESIAN_POINT('',(34.451315672526,39.124460720542,
    -4.655143426888));
#609 = CARTESIAN_POINT('',(34.471092547106,38.987497572166,
    -4.742062883899));
#610 = CARTESIAN_POINT('',(34.481770708797,38.89837101103,
    -4.791564355622));
#611 = CARTESIAN_POINT('',(34.490470979814,38.804609621798,
    -4.836389494697));
#612 = CARTESIAN_POINT('',(34.496698230512,38.706628560108,
    -4.875865073747));
#613 = CARTESIAN_POINT('',(34.5,38.604911548013,-4.909403627885));
#614 = CARTESIAN_POINT('',(34.5,38.5,-4.936491673104));
#615 = ORIENTED_EDGE('',*,*,#616,.F.);
#616 = EDGE_CURVE('',#617,#560,#619,.T.);
#617 = VERTEX_POINT('',#618);
#618 = CARTESIAN_POINT('',(34.5,38.5,-6.));
#619 = LINE('',#620,#621);
#620 = CARTESIAN_POINT('',(34.5,38.5,-6.));
#621 = VECTOR('',#622,1.);
#622 = DIRECTION('',(0.,0.,1.));
#623 = ORIENTED_EDGE('',*,*,#624,.T.);
#624 = EDGE_CURVE('',#617,#463,#625,.T.);
#625 = CIRCLE('',#626,4.);
#626 = AXIS2_PLACEMENT_3D('',#627,#628,#629);
#627 = CARTESIAN_POINT('',(30.5,38.5,-6.));
#628 = DIRECTION('',(0.,0.,1.));
#629 = DIRECTION('',(1.,0.,-0.));
#630 = ORIENTED_EDGE('',*,*,#479,.T.);
#631 = CYLINDRICAL_SURFACE('',#632,4.);
#632 = AXIS2_PLACEMENT_3D('',#633,#634,#635);
#633 = CARTESIAN_POINT('',(30.5,38.5,-6.));
#634 = DIRECTION('',(0.,0.,1.));
#635 = DIRECTION('',(1.,0.,-0.));
#636 = ADVANCED_FACE('',(#637,#679),#690,.T.);
#637 = FACE_BOUND('',#638,.T.);
#638 = EDGE_LOOP('',(#639,#649,#655,#656,#665,#672,#673));
#639 = ORIENTED_EDGE('',*,*,#640,.F.);
#640 = EDGE_CURVE('',#641,#643,#645,.T.);
#641 = VERTEX_POINT('',#642);
#642 = CARTESIAN_POINT('',(34.5,-38.5,-6.));
#643 = VERTEX_POINT('',#644);
#644 = CARTESIAN_POINT('',(34.5,-38.5,0.));
#645 = LINE('',#646,#647);
#646 = CARTESIAN_POINT('',(34.5,-38.5,-6.));
#647 = VECTOR('',#648,1.);
#648 = DIRECTION('',(0.,0.,1.));
#649 = ORIENTED_EDGE('',*,*,#650,.T.);
#650 = EDGE_CURVE('',#641,#617,#651,.T.);
#651 = LINE('',#652,#653);
#652 = CARTESIAN_POINT('',(34.5,-38.5,-6.));
#653 = VECTOR('',#654,1.);
#654 = DIRECTION('',(-0.,1.,0.));
#655 = ORIENTED_EDGE('',*,*,#616,.T.);
#656 = ORIENTED_EDGE('',*,*,#657,.T.);
#657 = EDGE_CURVE('',#560,#658,#660,.T.);
#658 = VERTEX_POINT('',#659);
#659 = CARTESIAN_POINT('',(34.5,38.,-5.));
#660 = CIRCLE('',#661,2.);
#661 = AXIS2_PLACEMENT_3D('',#662,#663,#664);
#662 = CARTESIAN_POINT('',(34.5,38.,-3.));
#663 = DIRECTION('',(-1.,0.,0.));
#664 = DIRECTION('',(0.,0.,-1.));
#665 = ORIENTED_EDGE('',*,*,#666,.T.);
#666 = EDGE_CURVE('',#658,#552,#667,.T.);
#667 = CIRCLE('',#668,2.);
#668 = AXIS2_PLACEMENT_3D('',#669,#670,#671);
#669 = CARTESIAN_POINT('',(34.5,38.,-3.));
#670 = DIRECTION('',(-1.,0.,0.));
#671 = DIRECTION('',(0.,0.,-1.));
#672 = ORIENTED_EDGE('',*,*,#551,.T.);
#673 = ORIENTED_EDGE('',*,*,#674,.F.);
#674 = EDGE_CURVE('',#643,#543,#675,.T.);
#675 = LINE('',#676,#677);
#676 = CARTESIAN_POINT('',(34.5,-38.5,0.));
#677 = VECTOR('',#678,1.);
#678 = DIRECTION('',(-0.,1.,0.));
#679 = FACE_BOUND('',#680,.T.);
#680 = EDGE_LOOP('',(#681));
#681 = ORIENTED_EDGE('',*,*,#682,.T.);
#682 = EDGE_CURVE('',#683,#683,#685,.T.);
#683 = VERTEX_POINT('',#684);
#684 = CARTESIAN_POINT('',(34.5,-7.,-5.));
#685 = CIRCLE('',#686,2.);
#686 = AXIS2_PLACEMENT_3D('',#687,#688,#689);
#687 = CARTESIAN_POINT('',(34.5,-7.,-3.));
#688 = DIRECTION('',(-1.,0.,0.));
#689 = DIRECTION('',(0.,0.,-1.));
#690 = PLANE('',#691);
#691 = AXIS2_PLACEMENT_3D('',#692,#693,#694);
#692 = CARTESIAN_POINT('',(34.5,-38.5,-6.));
#693 = DIRECTION('',(1.,0.,-0.));
#694 = DIRECTION('',(0.,0.,1.));
#695 = ADVANCED_FACE('',(#696),#714,.T.);
#696 = FACE_BOUND('',#697,.T.);
#697 = EDGE_LOOP('',(#698,#705,#706,#713));
#698 = ORIENTED_EDGE('',*,*,#699,.F.);
#699 = EDGE_CURVE('',#503,#643,#700,.T.);
#700 = CIRCLE('',#701,4.);
#701 = AXIS2_PLACEMENT_3D('',#702,#703,#704);
#702 = CARTESIAN_POINT('',(30.5,-38.5,0.));
#703 = DIRECTION('',(0.,0.,1.));
#704 = DIRECTION('',(1.,0.,-0.));
#705 = ORIENTED_EDGE('',*,*,#510,.F.);
#706 = ORIENTED_EDGE('',*,*,#707,.T.);
#707 = EDGE_CURVE('',#494,#641,#708,.T.);
#708 = CIRCLE('',#709,4.);
#709 = AXIS2_PLACEMENT_3D('',#710,#711,#712);
#710 = CARTESIAN_POINT('',(30.5,-38.5,-6.));
#711 = DIRECTION('',(0.,0.,1.));
#712 = DIRECTION('',(1.,0.,-0.));
#713 = ORIENTED_EDGE('',*,*,#640,.T.);
#714 = CYLINDRICAL_SURFACE('',#715,4.);
#715 = AXIS2_PLACEMENT_3D('',#716,#717,#718);
#716 = CARTESIAN_POINT('',(30.5,-38.5,-6.));
#717 = DIRECTION('',(0.,0.,1.));
#718 = DIRECTION('',(1.,0.,-0.));
#719 = ADVANCED_FACE('',(#720),#741,.F.);
#720 = FACE_BOUND('',#721,.F.);
#721 = EDGE_LOOP('',(#722,#730,#737,#738,#739,#740));
#722 = ORIENTED_EDGE('',*,*,#723,.T.);
#723 = EDGE_CURVE('',#658,#724,#726,.T.);
#724 = VERTEX_POINT('',#725);
#725 = CARTESIAN_POINT('',(31.4,38.,-5.));
#726 = LINE('',#727,#728);
#727 = CARTESIAN_POINT('',(34.6,38.,-5.));
#728 = VECTOR('',#729,1.);
#729 = DIRECTION('',(-1.,0.,0.));
#730 = ORIENTED_EDGE('',*,*,#731,.F.);
#731 = EDGE_CURVE('',#724,#724,#732,.T.);
#732 = CIRCLE('',#733,2.);
#733 = AXIS2_PLACEMENT_3D('',#734,#735,#736);
#734 = CARTESIAN_POINT('',(31.4,38.,-3.));
#735 = DIRECTION('',(-1.,0.,0.));
#736 = DIRECTION('',(0.,0.,-1.));
#737 = ORIENTED_EDGE('',*,*,#723,.F.);
#738 = ORIENTED_EDGE('',*,*,#666,.T.);
#739 = ORIENTED_EDGE('',*,*,#559,.T.);
#740 = ORIENTED_EDGE('',*,*,#657,.T.);
#741 = CYLINDRICAL_SURFACE('',#742,2.);
#742 = AXIS2_PLACEMENT_3D('',#743,#744,#745);
#743 = CARTESIAN_POINT('',(34.6,38.,-3.));
#744 = DIRECTION('',(-1.,0.,0.));
#745 = DIRECTION('',(0.,0.,-1.));
#746 = ADVANCED_FACE('',(#747),#766,.F.);
#747 = FACE_BOUND('',#748,.F.);
#748 = EDGE_LOOP('',(#749,#757,#764,#765));
#749 = ORIENTED_EDGE('',*,*,#750,.T.);
#750 = EDGE_CURVE('',#683,#751,#753,.T.);
#751 = VERTEX_POINT('',#752);
#752 = CARTESIAN_POINT('',(31.4,-7.,-5.));
#753 = LINE('',#754,#755);
#754 = CARTESIAN_POINT('',(34.6,-7.,-5.));
#755 = VECTOR('',#756,1.);
#756 = DIRECTION('',(-1.,0.,0.));
#757 = ORIENTED_EDGE('',*,*,#758,.F.);
#758 = EDGE_CURVE('',#751,#751,#759,.T.);
#759 = CIRCLE('',#760,2.);
#760 = AXIS2_PLACEMENT_3D('',#761,#762,#763);
#761 = CARTESIAN_POINT('',(31.4,-7.,-3.));
#762 = DIRECTION('',(-1.,0.,0.));
#763 = DIRECTION('',(0.,0.,-1.));
#764 = ORIENTED_EDGE('',*,*,#750,.F.);
#765 = ORIENTED_EDGE('',*,*,#682,.T.);
#766 = CYLINDRICAL_SURFACE('',#767,2.);
#767 = AXIS2_PLACEMENT_3D('',#768,#769,#770);
#768 = CARTESIAN_POINT('',(34.6,-7.,-3.));
#769 = DIRECTION('',(-1.,0.,0.));
#770 = DIRECTION('',(0.,0.,-1.));
#771 = ADVANCED_FACE('',(#772),#775,.F.);
#772 = FACE_BOUND('',#773,.F.);
#773 = EDGE_LOOP('',(#774));
#774 = ORIENTED_EDGE('',*,*,#731,.T.);
#775 = PLANE('',#776);
#776 = AXIS2_PLACEMENT_3D('',#777,#778,#779);
#777 = CARTESIAN_POINT('',(31.4,38.,-3.));
#778 = DIRECTION('',(-1.,0.,0.));
#779 = DIRECTION('',(0.,0.,-1.));
#780 = ADVANCED_FACE('',(#781),#784,.F.);
#781 = FACE_BOUND('',#782,.F.);
#782 = EDGE_LOOP('',(#783));
#783 = ORIENTED_EDGE('',*,*,#758,.T.);
#784 = PLANE('',#785);
#785 = AXIS2_PLACEMENT_3D('',#786,#787,#788);
#786 = CARTESIAN_POINT('',(31.4,-7.,-3.));
#787 = DIRECTION('',(-1.,0.,0.));
#788 = DIRECTION('',(0.,0.,-1.));
#789 = ADVANCED_FACE('',(#790,#806,#876,#887,#898,#909),#920,.T.);
#790 = FACE_BOUND('',#791,.T.);
#791 = EDGE_LOOP('',(#792,#793,#794,#795,#796,#797,#798,#799,#800,#801,
    #802,#803,#804,#805));
#792 = ORIENTED_EDGE('',*,*,#92,.T.);
#793 = ORIENTED_EDGE('',*,*,#77,.T.);
#794 = ORIENTED_EDGE('',*,*,#39,.T.);
#795 = ORIENTED_EDGE('',*,*,#210,.T.);
#796 = ORIENTED_EDGE('',*,*,#306,.T.);
#797 = ORIENTED_EDGE('',*,*,#276,.T.);
#798 = ORIENTED_EDGE('',*,*,#252,.T.);
#799 = ORIENTED_EDGE('',*,*,#502,.T.);
#800 = ORIENTED_EDGE('',*,*,#699,.T.);
#801 = ORIENTED_EDGE('',*,*,#674,.T.);
#802 = ORIENTED_EDGE('',*,*,#542,.T.);
#803 = ORIENTED_EDGE('',*,*,#471,.F.);
#804 = ORIENTED_EDGE('',*,*,#321,.T.);
#805 = ORIENTED_EDGE('',*,*,#168,.F.);
#806 = FACE_BOUND('',#807,.T.);
#807 = EDGE_LOOP('',(#808,#819,#827,#836,#844,#853,#861,#870));
#808 = ORIENTED_EDGE('',*,*,#809,.F.);
#809 = EDGE_CURVE('',#810,#812,#814,.T.);
#810 = VERTEX_POINT('',#811);
#811 = CARTESIAN_POINT('',(-16.,-6.,0.));
#812 = VERTEX_POINT('',#813);
#813 = CARTESIAN_POINT('',(-12.,-10.,0.));
#814 = CIRCLE('',#815,4.);
#815 = AXIS2_PLACEMENT_3D('',#816,#817,#818);
#816 = CARTESIAN_POINT('',(-12.,-6.,0.));
#817 = DIRECTION('',(0.,0.,1.));
#818 = DIRECTION('',(1.,0.,-0.));
#819 = ORIENTED_EDGE('',*,*,#820,.T.);
#820 = EDGE_CURVE('',#810,#821,#823,.T.);
#821 = VERTEX_POINT('',#822);
#822 = CARTESIAN_POINT('',(-16.,6.,0.));
#823 = LINE('',#824,#825);
#824 = CARTESIAN_POINT('',(-16.,-24.25,0.));
#825 = VECTOR('',#826,1.);
#826 = DIRECTION('',(-0.,1.,0.));
#827 = ORIENTED_EDGE('',*,*,#828,.F.);
#828 = EDGE_CURVE('',#829,#821,#831,.T.);
#829 = VERTEX_POINT('',#830);
#830 = CARTESIAN_POINT('',(-12.,10.,0.));
#831 = CIRCLE('',#832,4.);
#832 = AXIS2_PLACEMENT_3D('',#833,#834,#835);
#833 = CARTESIAN_POINT('',(-12.,6.,0.));
#834 = DIRECTION('',(0.,0.,1.));
#835 = DIRECTION('',(1.,0.,-0.));
#836 = ORIENTED_EDGE('',*,*,#837,.F.);
#837 = EDGE_CURVE('',#838,#829,#840,.T.);
#838 = VERTEX_POINT('',#839);
#839 = CARTESIAN_POINT('',(12.,10.,0.));
#840 = LINE('',#841,#842);
#841 = CARTESIAN_POINT('',(-21.25,10.,0.));
#842 = VECTOR('',#843,1.);
#843 = DIRECTION('',(-1.,-0.,0.));
#844 = ORIENTED_EDGE('',*,*,#845,.F.);
#845 = EDGE_CURVE('',#846,#838,#848,.T.);
#846 = VERTEX_POINT('',#847);
#847 = CARTESIAN_POINT('',(16.,6.,0.));
#848 = CIRCLE('',#849,4.);
#849 = AXIS2_PLACEMENT_3D('',#850,#851,#852);
#850 = CARTESIAN_POINT('',(12.,6.,0.));
#851 = DIRECTION('',(0.,0.,1.));
#852 = DIRECTION('',(1.,0.,-0.));
#853 = ORIENTED_EDGE('',*,*,#854,.F.);
#854 = EDGE_CURVE('',#855,#846,#857,.T.);
#855 = VERTEX_POINT('',#856);
#856 = CARTESIAN_POINT('',(16.,-6.,0.));
#857 = LINE('',#858,#859);
#858 = CARTESIAN_POINT('',(16.,-24.25,0.));
#859 = VECTOR('',#860,1.);
#860 = DIRECTION('',(-0.,1.,0.));
#861 = ORIENTED_EDGE('',*,*,#862,.F.);
#862 = EDGE_CURVE('',#863,#855,#865,.T.);
#863 = VERTEX_POINT('',#864);
#864 = CARTESIAN_POINT('',(12.,-10.,0.));
#865 = CIRCLE('',#866,4.);
#866 = AXIS2_PLACEMENT_3D('',#867,#868,#869);
#867 = CARTESIAN_POINT('',(12.,-6.,0.));
#868 = DIRECTION('',(0.,0.,1.));
#869 = DIRECTION('',(1.,0.,-0.));
#870 = ORIENTED_EDGE('',*,*,#871,.T.);
#871 = EDGE_CURVE('',#863,#812,#872,.T.);
#872 = LINE('',#873,#874);
#873 = CARTESIAN_POINT('',(-21.25,-10.,0.));
#874 = VECTOR('',#875,1.);
#875 = DIRECTION('',(-1.,-0.,0.));
#876 = FACE_BOUND('',#877,.T.);
#877 = EDGE_LOOP('',(#878));
#878 = ORIENTED_EDGE('',*,*,#879,.F.);
#879 = EDGE_CURVE('',#880,#880,#882,.T.);
#880 = VERTEX_POINT('',#881);
#881 = CARTESIAN_POINT('',(-16.25,-24.,0.));
#882 = CIRCLE('',#883,1.75);
#883 = AXIS2_PLACEMENT_3D('',#884,#885,#886);
#884 = CARTESIAN_POINT('',(-18.,-24.,0.));
#885 = DIRECTION('',(0.,0.,1.));
#886 = DIRECTION('',(1.,0.,-0.));
#887 = FACE_BOUND('',#888,.T.);
#888 = EDGE_LOOP('',(#889));
#889 = ORIENTED_EDGE('',*,*,#890,.F.);
#890 = EDGE_CURVE('',#891,#891,#893,.T.);
#891 = VERTEX_POINT('',#892);
#892 = CARTESIAN_POINT('',(19.75,-24.,0.));
#893 = CIRCLE('',#894,1.75);
#894 = AXIS2_PLACEMENT_3D('',#895,#896,#897);
#895 = CARTESIAN_POINT('',(18.,-24.,0.));
#896 = DIRECTION('',(0.,0.,1.));
#897 = DIRECTION('',(1.,0.,-0.));
#898 = FACE_BOUND('',#899,.T.);
#899 = EDGE_LOOP('',(#900));
#900 = ORIENTED_EDGE('',*,*,#901,.F.);
#901 = EDGE_CURVE('',#902,#902,#904,.T.);
#902 = VERTEX_POINT('',#903);
#903 = CARTESIAN_POINT('',(-16.25,24.,0.));
#904 = CIRCLE('',#905,1.75);
#905 = AXIS2_PLACEMENT_3D('',#906,#907,#908);
#906 = CARTESIAN_POINT('',(-18.,24.,0.));
#907 = DIRECTION('',(0.,0.,1.));
#908 = DIRECTION('',(1.,0.,-0.));
#909 = FACE_BOUND('',#910,.T.);
#910 = EDGE_LOOP('',(#911));
#911 = ORIENTED_EDGE('',*,*,#912,.F.);
#912 = EDGE_CURVE('',#913,#913,#915,.T.);
#913 = VERTEX_POINT('',#914);
#914 = CARTESIAN_POINT('',(19.75,24.,0.));
#915 = CIRCLE('',#916,1.75);
#916 = AXIS2_PLACEMENT_3D('',#917,#918,#919);
#917 = CARTESIAN_POINT('',(18.,24.,0.));
#918 = DIRECTION('',(0.,0.,1.));
#919 = DIRECTION('',(1.,0.,-0.));
#920 = PLANE('',#921);
#921 = AXIS2_PLACEMENT_3D('',#922,#923,#924);
#922 = CARTESIAN_POINT('',(0.,-1.048731849064,0.));
#923 = DIRECTION('',(0.,0.,1.));
#924 = DIRECTION('',(1.,0.,-0.));
#925 = ADVANCED_FACE('',(#926),#952,.F.);
#926 = FACE_BOUND('',#927,.F.);
#927 = EDGE_LOOP('',(#928,#929,#937,#946));
#928 = ORIENTED_EDGE('',*,*,#809,.F.);
#929 = ORIENTED_EDGE('',*,*,#930,.F.);
#930 = EDGE_CURVE('',#931,#810,#933,.T.);
#931 = VERTEX_POINT('',#932);
#932 = CARTESIAN_POINT('',(-16.,-6.,-6.));
#933 = LINE('',#934,#935);
#934 = CARTESIAN_POINT('',(-16.,-6.,-7.));
#935 = VECTOR('',#936,1.);
#936 = DIRECTION('',(0.,0.,1.));
#937 = ORIENTED_EDGE('',*,*,#938,.T.);
#938 = EDGE_CURVE('',#931,#939,#941,.T.);
#939 = VERTEX_POINT('',#940);
#940 = CARTESIAN_POINT('',(-12.,-10.,-6.));
#941 = CIRCLE('',#942,4.);
#942 = AXIS2_PLACEMENT_3D('',#943,#944,#945);
#943 = CARTESIAN_POINT('',(-12.,-6.,-6.));
#944 = DIRECTION('',(0.,0.,1.));
#945 = DIRECTION('',(1.,0.,-0.));
#946 = ORIENTED_EDGE('',*,*,#947,.T.);
#947 = EDGE_CURVE('',#939,#812,#948,.T.);
#948 = LINE('',#949,#950);
#949 = CARTESIAN_POINT('',(-12.,-10.,-7.));
#950 = VECTOR('',#951,1.);
#951 = DIRECTION('',(0.,0.,1.));
#952 = CYLINDRICAL_SURFACE('',#953,4.);
#953 = AXIS2_PLACEMENT_3D('',#954,#955,#956);
#954 = CARTESIAN_POINT('',(-12.,-6.,-7.));
#955 = DIRECTION('',(0.,0.,1.));
#956 = DIRECTION('',(1.,0.,-0.));
#957 = ADVANCED_FACE('',(#958),#976,.T.);
#958 = FACE_BOUND('',#959,.T.);
#959 = EDGE_LOOP('',(#960,#968,#969,#970));
#960 = ORIENTED_EDGE('',*,*,#961,.T.);
#961 = EDGE_CURVE('',#962,#939,#964,.T.);
#962 = VERTEX_POINT('',#963);
#963 = CARTESIAN_POINT('',(12.,-10.,-6.));
#964 = LINE('',#965,#966);
#965 = CARTESIAN_POINT('',(-21.25,-10.,-6.));
#966 = VECTOR('',#967,1.);
#967 = DIRECTION('',(-1.,-0.,0.));
#968 = ORIENTED_EDGE('',*,*,#947,.T.);
#969 = ORIENTED_EDGE('',*,*,#871,.F.);
#970 = ORIENTED_EDGE('',*,*,#971,.F.);
#971 = EDGE_CURVE('',#962,#863,#972,.T.);
#972 = LINE('',#973,#974);
#973 = CARTESIAN_POINT('',(12.,-10.,-7.));
#974 = VECTOR('',#975,1.);
#975 = DIRECTION('',(0.,0.,1.));
#976 = PLANE('',#977);
#977 = AXIS2_PLACEMENT_3D('',#978,#979,#980);
#978 = CARTESIAN_POINT('',(-12.,-10.,-7.));
#979 = DIRECTION('',(-0.,1.,0.));
#980 = DIRECTION('',(0.,0.,1.));
#981 = ADVANCED_FACE('',(#982),#1001,.F.);
#982 = FACE_BOUND('',#983,.F.);
#983 = EDGE_LOOP('',(#984,#985,#986,#995));
#984 = ORIENTED_EDGE('',*,*,#862,.F.);
#985 = ORIENTED_EDGE('',*,*,#971,.F.);
#986 = ORIENTED_EDGE('',*,*,#987,.T.);
#987 = EDGE_CURVE('',#962,#988,#990,.T.);
#988 = VERTEX_POINT('',#989);
#989 = CARTESIAN_POINT('',(16.,-6.,-6.));
#990 = CIRCLE('',#991,4.);
#991 = AXIS2_PLACEMENT_3D('',#992,#993,#994);
#992 = CARTESIAN_POINT('',(12.,-6.,-6.));
#993 = DIRECTION('',(0.,0.,1.));
#994 = DIRECTION('',(1.,0.,-0.));
#995 = ORIENTED_EDGE('',*,*,#996,.T.);
#996 = EDGE_CURVE('',#988,#855,#997,.T.);
#997 = LINE('',#998,#999);
#998 = CARTESIAN_POINT('',(16.,-6.,-7.));
#999 = VECTOR('',#1000,1.);
#1000 = DIRECTION('',(0.,0.,1.));
#1001 = CYLINDRICAL_SURFACE('',#1002,4.);
#1002 = AXIS2_PLACEMENT_3D('',#1003,#1004,#1005);
#1003 = CARTESIAN_POINT('',(12.,-6.,-7.));
#1004 = DIRECTION('',(0.,0.,1.));
#1005 = DIRECTION('',(1.,0.,-0.));
#1006 = ADVANCED_FACE('',(#1007),#1025,.F.);
#1007 = FACE_BOUND('',#1008,.F.);
#1008 = EDGE_LOOP('',(#1009,#1010,#1018,#1024));
#1009 = ORIENTED_EDGE('',*,*,#996,.F.);
#1010 = ORIENTED_EDGE('',*,*,#1011,.T.);
#1011 = EDGE_CURVE('',#988,#1012,#1014,.T.);
#1012 = VERTEX_POINT('',#1013);
#1013 = CARTESIAN_POINT('',(16.,6.,-6.));
#1014 = LINE('',#1015,#1016);
#1015 = CARTESIAN_POINT('',(16.,-24.25,-6.));
#1016 = VECTOR('',#1017,1.);
#1017 = DIRECTION('',(-0.,1.,0.));
#1018 = ORIENTED_EDGE('',*,*,#1019,.T.);
#1019 = EDGE_CURVE('',#1012,#846,#1020,.T.);
#1020 = LINE('',#1021,#1022);
#1021 = CARTESIAN_POINT('',(16.,6.,-7.));
#1022 = VECTOR('',#1023,1.);
#1023 = DIRECTION('',(0.,0.,1.));
#1024 = ORIENTED_EDGE('',*,*,#854,.F.);
#1025 = PLANE('',#1026);
#1026 = AXIS2_PLACEMENT_3D('',#1027,#1028,#1029);
#1027 = CARTESIAN_POINT('',(16.,-6.,-7.));
#1028 = DIRECTION('',(1.,0.,-0.));
#1029 = DIRECTION('',(0.,0.,1.));
#1030 = ADVANCED_FACE('',(#1031),#1050,.F.);
#1031 = FACE_BOUND('',#1032,.F.);
#1032 = EDGE_LOOP('',(#1033,#1034,#1035,#1044));
#1033 = ORIENTED_EDGE('',*,*,#845,.F.);
#1034 = ORIENTED_EDGE('',*,*,#1019,.F.);
#1035 = ORIENTED_EDGE('',*,*,#1036,.T.);
#1036 = EDGE_CURVE('',#1012,#1037,#1039,.T.);
#1037 = VERTEX_POINT('',#1038);
#1038 = CARTESIAN_POINT('',(12.,10.,-6.));
#1039 = CIRCLE('',#1040,4.);
#1040 = AXIS2_PLACEMENT_3D('',#1041,#1042,#1043);
#1041 = CARTESIAN_POINT('',(12.,6.,-6.));
#1042 = DIRECTION('',(0.,0.,1.));
#1043 = DIRECTION('',(1.,0.,-0.));
#1044 = ORIENTED_EDGE('',*,*,#1045,.T.);
#1045 = EDGE_CURVE('',#1037,#838,#1046,.T.);
#1046 = LINE('',#1047,#1048);
#1047 = CARTESIAN_POINT('',(12.,10.,-7.));
#1048 = VECTOR('',#1049,1.);
#1049 = DIRECTION('',(0.,0.,1.));
#1050 = CYLINDRICAL_SURFACE('',#1051,4.);
#1051 = AXIS2_PLACEMENT_3D('',#1052,#1053,#1054);
#1052 = CARTESIAN_POINT('',(12.,6.,-7.));
#1053 = DIRECTION('',(0.,0.,1.));
#1054 = DIRECTION('',(1.,0.,-0.));
#1055 = ADVANCED_FACE('',(#1056),#1074,.F.);
#1056 = FACE_BOUND('',#1057,.F.);
#1057 = EDGE_LOOP('',(#1058,#1066,#1072,#1073));
#1058 = ORIENTED_EDGE('',*,*,#1059,.T.);
#1059 = EDGE_CURVE('',#1037,#1060,#1062,.T.);
#1060 = VERTEX_POINT('',#1061);
#1061 = CARTESIAN_POINT('',(-12.,10.,-6.));
#1062 = LINE('',#1063,#1064);
#1063 = CARTESIAN_POINT('',(-21.25,10.,-6.));
#1064 = VECTOR('',#1065,1.);
#1065 = DIRECTION('',(-1.,-0.,0.));
#1066 = ORIENTED_EDGE('',*,*,#1067,.T.);
#1067 = EDGE_CURVE('',#1060,#829,#1068,.T.);
#1068 = LINE('',#1069,#1070);
#1069 = CARTESIAN_POINT('',(-12.,10.,-7.));
#1070 = VECTOR('',#1071,1.);
#1071 = DIRECTION('',(0.,0.,1.));
#1072 = ORIENTED_EDGE('',*,*,#837,.F.);
#1073 = ORIENTED_EDGE('',*,*,#1045,.F.);
#1074 = PLANE('',#1075);
#1075 = AXIS2_PLACEMENT_3D('',#1076,#1077,#1078);
#1076 = CARTESIAN_POINT('',(-12.,10.,-7.));
#1077 = DIRECTION('',(-0.,1.,0.));
#1078 = DIRECTION('',(0.,0.,1.));
#1079 = ADVANCED_FACE('',(#1080),#1099,.F.);
#1080 = FACE_BOUND('',#1081,.F.);
#1081 = EDGE_LOOP('',(#1082,#1083,#1084,#1093));
#1082 = ORIENTED_EDGE('',*,*,#828,.F.);
#1083 = ORIENTED_EDGE('',*,*,#1067,.F.);
#1084 = ORIENTED_EDGE('',*,*,#1085,.T.);
#1085 = EDGE_CURVE('',#1060,#1086,#1088,.T.);
#1086 = VERTEX_POINT('',#1087);
#1087 = CARTESIAN_POINT('',(-16.,6.,-6.));
#1088 = CIRCLE('',#1089,4.);
#1089 = AXIS2_PLACEMENT_3D('',#1090,#1091,#1092);
#1090 = CARTESIAN_POINT('',(-12.,6.,-6.));
#1091 = DIRECTION('',(0.,0.,1.));
#1092 = DIRECTION('',(1.,0.,-0.));
#1093 = ORIENTED_EDGE('',*,*,#1094,.T.);
#1094 = EDGE_CURVE('',#1086,#821,#1095,.T.);
#1095 = LINE('',#1096,#1097);
#1096 = CARTESIAN_POINT('',(-16.,6.,-7.));
#1097 = VECTOR('',#1098,1.);
#1098 = DIRECTION('',(0.,0.,1.));
#1099 = CYLINDRICAL_SURFACE('',#1100,4.);
#1100 = AXIS2_PLACEMENT_3D('',#1101,#1102,#1103);
#1101 = CARTESIAN_POINT('',(-12.,6.,-7.));
#1102 = DIRECTION('',(0.,0.,1.));
#1103 = DIRECTION('',(1.,0.,-0.));
#1104 = ADVANCED_FACE('',(#1105),#1116,.T.);
#1105 = FACE_BOUND('',#1106,.T.);
#1106 = EDGE_LOOP('',(#1107,#1108,#1114,#1115));
#1107 = ORIENTED_EDGE('',*,*,#930,.F.);
#1108 = ORIENTED_EDGE('',*,*,#1109,.T.);
#1109 = EDGE_CURVE('',#931,#1086,#1110,.T.);
#1110 = LINE('',#1111,#1112);
#1111 = CARTESIAN_POINT('',(-16.,-24.25,-6.));
#1112 = VECTOR('',#1113,1.);
#1113 = DIRECTION('',(-0.,1.,0.));
#1114 = ORIENTED_EDGE('',*,*,#1094,.T.);
#1115 = ORIENTED_EDGE('',*,*,#820,.F.);
#1116 = PLANE('',#1117);
#1117 = AXIS2_PLACEMENT_3D('',#1118,#1119,#1120);
#1118 = CARTESIAN_POINT('',(-16.,-6.,-7.));
#1119 = DIRECTION('',(1.,0.,-0.));
#1120 = DIRECTION('',(0.,0.,1.));
#1121 = ADVANCED_FACE('',(#1122),#1141,.F.);
#1122 = FACE_BOUND('',#1123,.F.);
#1123 = EDGE_LOOP('',(#1124,#1125,#1133,#1140));
#1124 = ORIENTED_EDGE('',*,*,#879,.F.);
#1125 = ORIENTED_EDGE('',*,*,#1126,.F.);
#1126 = EDGE_CURVE('',#1127,#880,#1129,.T.);
#1127 = VERTEX_POINT('',#1128);
#1128 = CARTESIAN_POINT('',(-16.25,-24.,-6.));
#1129 = LINE('',#1130,#1131);
#1130 = CARTESIAN_POINT('',(-16.25,-24.,-7.));
#1131 = VECTOR('',#1132,1.);
#1132 = DIRECTION('',(0.,0.,1.));
#1133 = ORIENTED_EDGE('',*,*,#1134,.T.);
#1134 = EDGE_CURVE('',#1127,#1127,#1135,.T.);
#1135 = CIRCLE('',#1136,1.75);
#1136 = AXIS2_PLACEMENT_3D('',#1137,#1138,#1139);
#1137 = CARTESIAN_POINT('',(-18.,-24.,-6.));
#1138 = DIRECTION('',(0.,0.,1.));
#1139 = DIRECTION('',(1.,0.,-0.));
#1140 = ORIENTED_EDGE('',*,*,#1126,.T.);
#1141 = CYLINDRICAL_SURFACE('',#1142,1.75);
#1142 = AXIS2_PLACEMENT_3D('',#1143,#1144,#1145);
#1143 = CARTESIAN_POINT('',(-18.,-24.,-7.));
#1144 = DIRECTION('',(0.,0.,1.));
#1145 = DIRECTION('',(1.,0.,-0.));
#1146 = ADVANCED_FACE('',(#1147),#1166,.F.);
#1147 = FACE_BOUND('',#1148,.F.);
#1148 = EDGE_LOOP('',(#1149,#1150,#1158,#1165));
#1149 = ORIENTED_EDGE('',*,*,#890,.F.);
#1150 = ORIENTED_EDGE('',*,*,#1151,.F.);
#1151 = EDGE_CURVE('',#1152,#891,#1154,.T.);
#1152 = VERTEX_POINT('',#1153);
#1153 = CARTESIAN_POINT('',(19.75,-24.,-6.));
#1154 = LINE('',#1155,#1156);
#1155 = CARTESIAN_POINT('',(19.75,-24.,-7.));
#1156 = VECTOR('',#1157,1.);
#1157 = DIRECTION('',(0.,0.,1.));
#1158 = ORIENTED_EDGE('',*,*,#1159,.T.);
#1159 = EDGE_CURVE('',#1152,#1152,#1160,.T.);
#1160 = CIRCLE('',#1161,1.75);
#1161 = AXIS2_PLACEMENT_3D('',#1162,#1163,#1164);
#1162 = CARTESIAN_POINT('',(18.,-24.,-6.));
#1163 = DIRECTION('',(0.,0.,1.));
#1164 = DIRECTION('',(1.,0.,-0.));
#1165 = ORIENTED_EDGE('',*,*,#1151,.T.);
#1166 = CYLINDRICAL_SURFACE('',#1167,1.75);
#1167 = AXIS2_PLACEMENT_3D('',#1168,#1169,#1170);
#1168 = CARTESIAN_POINT('',(18.,-24.,-7.));
#1169 = DIRECTION('',(0.,0.,1.));
#1170 = DIRECTION('',(1.,0.,-0.));
#1171 = ADVANCED_FACE('',(#1172),#1191,.F.);
#1172 = FACE_BOUND('',#1173,.F.);
#1173 = EDGE_LOOP('',(#1174,#1175,#1183,#1190));
#1174 = ORIENTED_EDGE('',*,*,#901,.F.);
#1175 = ORIENTED_EDGE('',*,*,#1176,.F.);
#1176 = EDGE_CURVE('',#1177,#902,#1179,.T.);
#1177 = VERTEX_POINT('',#1178);
#1178 = CARTESIAN_POINT('',(-16.25,24.,-6.));
#1179 = LINE('',#1180,#1181);
#1180 = CARTESIAN_POINT('',(-16.25,24.,-7.));
#1181 = VECTOR('',#1182,1.);
#1182 = DIRECTION('',(0.,0.,1.));
#1183 = ORIENTED_EDGE('',*,*,#1184,.T.);
#1184 = EDGE_CURVE('',#1177,#1177,#1185,.T.);
#1185 = CIRCLE('',#1186,1.75);
#1186 = AXIS2_PLACEMENT_3D('',#1187,#1188,#1189);
#1187 = CARTESIAN_POINT('',(-18.,24.,-6.));
#1188 = DIRECTION('',(0.,0.,1.));
#1189 = DIRECTION('',(1.,0.,-0.));
#1190 = ORIENTED_EDGE('',*,*,#1176,.T.);
#1191 = CYLINDRICAL_SURFACE('',#1192,1.75);
#1192 = AXIS2_PLACEMENT_3D('',#1193,#1194,#1195);
#1193 = CARTESIAN_POINT('',(-18.,24.,-7.));
#1194 = DIRECTION('',(0.,0.,1.));
#1195 = DIRECTION('',(1.,0.,-0.));
#1196 = ADVANCED_FACE('',(#1197),#1216,.F.);
#1197 = FACE_BOUND('',#1198,.F.);
#1198 = EDGE_LOOP('',(#1199,#1200,#1208,#1215));
#1199 = ORIENTED_EDGE('',*,*,#912,.F.);
#1200 = ORIENTED_EDGE('',*,*,#1201,.F.);
#1201 = EDGE_CURVE('',#1202,#913,#1204,.T.);
#1202 = VERTEX_POINT('',#1203);
#1203 = CARTESIAN_POINT('',(19.75,24.,-6.));
#1204 = LINE('',#1205,#1206);
#1205 = CARTESIAN_POINT('',(19.75,24.,-7.));
#1206 = VECTOR('',#1207,1.);
#1207 = DIRECTION('',(0.,0.,1.));
#1208 = ORIENTED_EDGE('',*,*,#1209,.T.);
#1209 = EDGE_CURVE('',#1202,#1202,#1210,.T.);
#1210 = CIRCLE('',#1211,1.75);
#1211 = AXIS2_PLACEMENT_3D('',#1212,#1213,#1214);
#1212 = CARTESIAN_POINT('',(18.,24.,-6.));
#1213 = DIRECTION('',(0.,0.,1.));
#1214 = DIRECTION('',(1.,0.,-0.));
#1215 = ORIENTED_EDGE('',*,*,#1201,.T.);
#1216 = CYLINDRICAL_SURFACE('',#1217,1.75);
#1217 = AXIS2_PLACEMENT_3D('',#1218,#1219,#1220);
#1218 = CARTESIAN_POINT('',(18.,24.,-7.));
#1219 = DIRECTION('',(0.,0.,1.));
#1220 = DIRECTION('',(1.,0.,-0.));
#1221 = ADVANCED_FACE('',(#1222,#1238,#1248,#1251,#1254,#1257),#1260,.T.
  );
#1222 = FACE_BOUND('',#1223,.T.);
#1223 = EDGE_LOOP('',(#1224,#1225,#1226,#1227,#1228,#1229,#1230,#1231,
    #1232,#1233,#1234,#1235,#1236,#1237));
#1224 = ORIENTED_EDGE('',*,*,#109,.F.);
#1225 = ORIENTED_EDGE('',*,*,#126,.T.);
#1226 = ORIENTED_EDGE('',*,*,#338,.F.);
#1227 = ORIENTED_EDGE('',*,*,#462,.T.);
#1228 = ORIENTED_EDGE('',*,*,#624,.F.);
#1229 = ORIENTED_EDGE('',*,*,#650,.F.);
#1230 = ORIENTED_EDGE('',*,*,#707,.F.);
#1231 = ORIENTED_EDGE('',*,*,#493,.F.);
#1232 = ORIENTED_EDGE('',*,*,#236,.F.);
#1233 = ORIENTED_EDGE('',*,*,#266,.F.);
#1234 = ORIENTED_EDGE('',*,*,#299,.F.);
#1235 = ORIENTED_EDGE('',*,*,#193,.F.);
#1236 = ORIENTED_EDGE('',*,*,#21,.F.);
#1237 = ORIENTED_EDGE('',*,*,#61,.F.);
#1238 = FACE_BOUND('',#1239,.T.);
#1239 = EDGE_LOOP('',(#1240,#1241,#1242,#1243,#1244,#1245,#1246,#1247));
#1240 = ORIENTED_EDGE('',*,*,#938,.T.);
#1241 = ORIENTED_EDGE('',*,*,#961,.F.);
#1242 = ORIENTED_EDGE('',*,*,#987,.T.);
#1243 = ORIENTED_EDGE('',*,*,#1011,.T.);
#1244 = ORIENTED_EDGE('',*,*,#1036,.T.);
#1245 = ORIENTED_EDGE('',*,*,#1059,.T.);
#1246 = ORIENTED_EDGE('',*,*,#1085,.T.);
#1247 = ORIENTED_EDGE('',*,*,#1109,.F.);
#1248 = FACE_BOUND('',#1249,.T.);
#1249 = EDGE_LOOP('',(#1250));
#1250 = ORIENTED_EDGE('',*,*,#1134,.T.);
#1251 = FACE_BOUND('',#1252,.T.);
#1252 = EDGE_LOOP('',(#1253));
#1253 = ORIENTED_EDGE('',*,*,#1159,.T.);
#1254 = FACE_BOUND('',#1255,.T.);
#1255 = EDGE_LOOP('',(#1256));
#1256 = ORIENTED_EDGE('',*,*,#1184,.T.);
#1257 = FACE_BOUND('',#1258,.T.);
#1258 = EDGE_LOOP('',(#1259));
#1259 = ORIENTED_EDGE('',*,*,#1209,.T.);
#1260 = PLANE('',#1261);
#1261 = AXIS2_PLACEMENT_3D('',#1262,#1263,#1264);
#1262 = CARTESIAN_POINT('',(1.774273337743E-16,-1.048731849064,-6.));
#1263 = DIRECTION('',(-0.,-0.,-1.));
#1264 = DIRECTION('',(-1.,0.,0.));
#1265 = ( GEOMETRIC_REPRESENTATION_CONTEXT(3) 
GLOBAL_UNCERTAINTY_ASSIGNED_CONTEXT((#1269)) 
GLOBAL_UNIT_ASSIGNED_CONTEXT((#1266,#1267,#1268)) REPRESENTATION_CONTEXT
('Context #1','3D Context with UNIT and UNCERTAINTY') );
#1266 = ( LENGTH_UNIT() NAMED_UNIT(*) SI_UNIT(.MILLI.,.METRE.) );
#1267 = ( NAMED_UNIT(*) PLANE_ANGLE_UNIT() SI_UNIT($,.RADIAN.) );
#1268 = ( NAMED_UNIT(*) SI_UNIT($,.STERADIAN.) SOLID_ANGLE_UNIT() );
#1269 = UNCERTAINTY_MEASURE_WITH_UNIT(LENGTH_MEASURE(1.E-07),#1266,
  'distance_accuracy_value','confusion accuracy');
#1270 = PRODUCT_RELATED_PRODUCT_CATEGORY('part',$,(#7));
ENDSEC;
END-ISO-10303-21;
